<mxfile host="app.diagrams.net" modified="2024-06-21T20:50:10.834Z" agent="Mozilla/5.0 (Windows NT 10.0; Win64; x64) AppleWebKit/537.36 (KHTML, like Gecko) Chrome/126.0.0.0 Safari/537.36" etag="N95H6Q3t8-dDZrK_X3FD" version="24.6.1" type="github" pages="2">
  <diagram name="Базовый сценарий" id="s8WXB1qe8uRrZvsyZEL_">
    <mxGraphModel dx="880" dy="434" grid="1" gridSize="10" guides="1" tooltips="1" connect="1" arrows="1" fold="1" page="1" pageScale="1" pageWidth="827" pageHeight="1169" math="0" shadow="0">
      <root>
        <mxCell id="0" />
        <mxCell id="1" parent="0" />
        <mxCell id="Vnvi8WRZQItb_GYlGfeH-2" value="" style="shape=image;verticalLabelPosition=bottom;labelBackgroundColor=default;verticalAlign=top;aspect=fixed;imageAspect=0;image=data:image/png,iVBORw0KGgoAAAANSUhEUgAAA9IAAAIoCAIAAAAKj0RCAAAAKnRFWHRjb3B5bGVmdABHZW5lcmF0ZWQgYnkgaHR0cHM6Ly9wbGFudHVtbC5jb212zsofAAACaGlUWHRwbGFudHVtbAABAAAAeJyVU01v00AQve+vGPXUqnLVRk1VfEAVbUEKiagI6X3jmGDJWUf2OlJv+SggBFLhhrgA/yCERg2EOn9h9x8xs46dD1WgXmxrPfPem/dmjyLJQxm3fCY96buwob7rN2qsbtVQd9VE/YK9HVBfVaKmeqDfmj8TNQY1xc/fVKR7uq9GaghY80O/w+OfKgECUDcGZt6krzYY444MQiT5gv0TOtf9DeAROL7nCsnaqMVzvDYXMi8iPiTKyoTnrJV9VDNUMM6L2q942OLOBazVfSOBKtF9S1+a6f7gk2YdzUWEQT2Q612fzBw43TV+3KLg9/o1YPPYtBJzokamvcElr/PIBRwzloGIW3U3ZCzVDNbD+ZA2oNIEgXp6gKZ+QASSgf4AKukaw4YsraWubJztbXuFF9AX9Ide16mTiHGZmkWqdPeOkFhuzhKyTdHNCNsgTfOQ8WhumRpaiN5TM1oEkyY5PtVXK4DGQNJJjhnERPdWzRr+XzaqZNyXgIEthmVpOBmJTf03tGlpAEuiSeMKpx4w18dY1Of7GJXzZbHa93Q6XwdrIXpZFnNFg2U0S2lYln0X3IrR6XaYypm5pnT1CLv/jwvKjpCRbjo783G3a5UydNww8gKBd7ywW9jfKW5WYwEVfgGFA9h9YO8V7eIh1F4cA/3eYptPzsoQBXHouNDwIhl69Vhi/xYr8Q6H57GQXguNetZ2RenkaXYAp6LjhYFo0RUvnVcWBQf71iNPQtUNUQmcV9iJ+5LHmP2pcIKGJ5o2sj+2DlmZi2bMm4jtCnYcIG6Ia1ursr/5y32E1tPXfgAAbzNJREFUeNrsnQl4FFW6sJElJGFNQvaks5KEAIFBkJHNECK4gQLDj4zoyIA4YXVw8I4gXLYALiiGAYY4yiIBFDCALIozoE5AIY4gEAQJS4KySiCQkEAI/t+l7tTt6e6qru4kZHvfJ0+e06dOVZ865zvnvF2prtT5BQAAAAAAKpg6NAEAAAAAANoNAAAAAIB2AwAAAAAA2g0AAAAAgHYDAAAAAKDdAAAAAACAdgMAAAAAoN0AAAAAAIB2AwAAAACg3QAAAAAAaDcAAAAAAKDdAAAAAABoNwAAAAAA2g0AAAAAAGg3AAAAAADaDQAAUF4UFxffvn2bdgAAtBsAqgEmk2nVqlVXrlyR3yEhITQIVHE+//zzZ5999r777gsKCvL29p4xYwZtAgBoN0DNZPv27QMGDAgICGjQoEHjxo3DwsL69u1bfU/ns88+i42Nbdiwofz+xz/+Ydd44uPj69zBsZlFGyIKjLNv3z4Zd3Fxcd9++y3XuQEA7QaoyYwfP15Mcfjw4T/88ENxcXF2dvaHH36YkJBQS07/gQce2Llzp9PabSQTQIchQ4ZIzHzxxRc0BQCg3QA1meXLl8uS369fP4Nyaa2V//znPxMTE5s0adK0adMuXbps2bLF+L5vvvmm5NStW9fPz++55567evWqeUmpW4cOHdzd3SMiIt5//32bx0lJSdF5F+utDjl0uWj3p59+2q1bNzkLNze3rl27ykubu1jQsWNH+S2ff9Ri27Ztk5y4uLgK7RS7radzZJ1WsvnXACOVvH379sSJEyV9zz33zJs3r4yRIxw8eHDw4MGyV8OGDe+9994NGzb8ov2HC/NNUgFPT8/4+Pjdu3fbrYY1OmHg7+8vB3nmmWckIbVq166deb8b7y+DrWrdEXZDtOwj+vPPP3/ssccCAgLq1avXokWLPn367Nu3r+xTxN0fAt98843EgIeHB3/dAkC7ARymc+fOsmxkZGQ4t9Du3Lmzfv36PXr0yM7OzsvLe/rppxXpMbg0Tps2LSsrq6io6N1335VNo0ePNi95//33nzp1Kjc3V1RAXu7YscPiOD/++KOsqVrvYnPrXdZuMRgxBuVEcnJyJCEvLbRGUTqLIyxdutTi49Af/vAHyXnttdcqtFP0W0//yFqtZH12Bit58+bN3/72t5JwcXFJS0sre+Ts3btXzDI4OPjvf//7tWvXvv32Wzm+fp+afwD48ssvJR0eHm63GtbOrRMGYqJqnZWt8lK9Ocoh7Xao642HqHHt1mqQRx99dNeuXVeuXJFmX7NmjdqMZZwi7v4QaNWqlbyUyty4ceMX/roFgHYDOIS7u7ssG7IyOafdsrDJywMHDigvz58/Ly+joqIMLtIqt27dkk0mk8m8pKzTyktJyMuePXtaHKd///7WF5z0t95l7Va0Tz0R+XgjL7t162Zx4qKVFkcQz/D09GzQoMGlS5cU5wsMDBQfEhWQl5IvZYqLi8u9U/RbT//IWt1qfXYGK9mrVy/53aRJE7Fk/bcwGDnKAZUr3Ab71Fq7pV/sVsMC/TCwqLOy9YEHHnBCux3qeoMh6pB26zeItOHly5dTU1NlU1BQUFkOWFlDoHHjxsrwdHreAEC7AdBuJ7Vb2d2CevXqmRfW+rrhyZMnBw0a5OfnJzapbJKE+Y7Xrl1TXl69elVeenl5mW/duHGj/FZWQesaam29y9rt5uZmfSKSqRaQ9VtyPDw8rI/wpz/9SRKLFy/+5c5lWkVDlTLt2rVTzlH5Bl45dop+6+kf2RqdszNeyWeffdbisE5HjqPRbt1c99xzzwcffGC3Ghboh4GRaC/H8ehQ3Wy2jxMj2mJfKfP111+X5YCVNQRGjhzJ1W4AtBvASe67776y3GSiLG8XLlxwYt/u3bvLywULFhQXF9+8edN8q4WISMJaRIKDg+X3okWLbL6L1tbK1W7lRKTR1AIXL16UnOjoaOsjHD9+XCRPue44efJk5c4T9SJuq1atVBcpx07Rbz39I1ujc3ZGKhkREeHi4iKJtWvXmm91OnKUN718+bKj2q1cbVW+CKFeh9aphr7aWoSBq6urzlYntNtg1xsM0XIZ0QrShqdOnRo1apTkP/3002U5YGUNAamJ8r0L7u0GQLsBHKaMX6lUHr23bt06J/Zt1KiRvLx+/bqk9+/fby1P+jeZCPLut2/ftvkuWlvL4tBO7GLxF3zlRMz/gq9cxn7yySdtHuHhhx8W8z558mSbNm1Ej7S+sVeOnaLfevpHtkbn7IxU8ueffxblkkTTpk1/+OGHskdOQkKCciHTCe0W5B2VK6B2q2GBfhgoH321tjqk3Q51vcEQLZcRbc6VK1ckXwqX1wHv5hDYvXt3/fr1ZVQqN9+j3QBoN4BjjBs3Tn2A4I0bN0TyPvroI/V+Bv0lKiMjw8XFJSws7Ouvvy4sLPz+++9TU1M7duxoZN9f//rX8jItLe3ChQsPPvigtTyJEOTk5KhfjFNv8FW2uru7Z2dna72L1ta7rN3K99XMT8T8+2rSXOI30oCiFDaP8PHHHytdI78HDx5ssCZl6RT91tM/sgX6Z2e8kv/v//0/5REuin6VJXLkvVxdXUNCQnbs2FFQUCAV+81vfmNQu9Wr3crDZPSrYYF+GEgvi8YpWwWLrQ5pt0Ndb6RuDgmrToNIJGzYsCEvL+/ixYvK3VMitWU5YKUMgfz8fDmmvHzppZeMTBEAaDcA2NaC/v37+/v7169f383NzWQyPfLIIxbXfrT+rpqZmfnEE094eXnJOhcZGfm73/1u7969Rpa3w4cPd+nSpWHDhvJ2Fn/MVdLLli1r166d1EeWOvPHZShb33rrLZ130dqqtWDr3OVZRlNXns7mdgc5308++UTd1KRJE5EPizt8zI9QWlqqLPPC5s2bjdfE6U6x23o6R7bA7tkZrOTVq1ejo6Pl5bBhw8oYOcJ33303aNAgHx8f2b1Dhw4WX6/Uv7fbw8MjMTFR/aKeTjVsDjGtMBCkcyXT5tY6xnCi6w3Wzbh26zSIvEXPnj2bN2/eoEED+dgjXancAeL0AStlCDz11FOSlrC5efMm2g2AdgPclRFV8SsNi5nK7NmzpSm8vb1LSkpoDSKHUwYAtBuAZR6TKH8KCwuVp5jNmDGD1iByOGUAQLsBAJMof5SHTHt7e0+YMIFL3UQOAADaDQAAAAAAaDcAAAAAANoNAAAAAIB2AwAAAAAA2g0AAAAAgHYDAAAAAKDdAAAAAACAdgMAAAAAoN0AAAAAAIB2AwAAAACg3QAAAAAAaLdBcnNz33vvvddff/211+TXG2lpaefPn6fdAQAAAADtLh9Er2fNSv7rX989cOB4bu4V5edf//o+JWXRnDlzCwoKaH0AAAAAQLvLxDfffDNt2ozjx8+rwm3+c+TIjy+/PPnYsWN0AAAAAACg3U5y5syZGTOSbQq3+nPixM9i3lzzBgAAAAC020kmTZosVq2v3fLz/fc/zp49hz4AAAAAALTbYfbv379y5Tq7zq38vPXWX/iGJQAAAACg3Q4zb95b2dnnDWr3nj1ZK1eupBsAAAAAAO12jNmzXzXo3MrPnDmv0Q0AAAAAgHY7RnLyXIe0WzSdbgAAAAAAtBvtBgAAAACoYto9Z86rRh5jovzs23csNfVvdAMAAAAAoN2OkZGR8eGHmw1qd0pKam5uLt0AAAAAAGi3w0yc+LIR587OPj916nT6AAAAAADQbmc4dChr7ty37Gr3yy//99mz5+gDAAAAAEC7nWTr1k90zPvEiZ8nT57+9dd76QAAAAAAQLvLxMGDWS+++OcPP9xs/g3L7Ozzy5Z9+Kc//fn06Z9ofQAAAABAu8uHnTu/nDlzzvTps4cMGSq/5859IzPzW9odAAAAANDuCuGNN96guQEAAAAA7Ua7AQAAAADQbgAAAAAAtBvtBgAAAABAuwEAAAAA0G4AAAAAALQb7QYAAAAAqDTt/uCDD94wwIABA4wUk6PRKwAAAACAdjsJV7sBAAAAAO1GuwEAAAAA0G4AAAAAALQb7QYAAAAAQLsBAAAAANBuAAAAAAC0G+0GAAAAAEC7AQAAAADQbrQbAAAAANButBsAAAAAAO0GAAAAAEC70W4AAAAAALQbAAAAAADtBgAAAABAu9FuAAAAAAC0GwAAAAAA7Ua7AQAAAADtRrsBAAAAAGqAdhcUFDz77LMlJSW0OAAAAACg3RWC2Pb06dN37drFBW8AAAAAQLsrirlz5x47dkwSe/bsSU1NpdGrLF999XVy8tyZM+fUvJ/Zs19dt25dtft7S7XukWra5sBY4IcZgNjjp4IivMK1+7333hPbVl9uvgNLSBVkzZo1r7+ecuLEz7m5V2rkzyeffLl+/Xp6hDYHZid+mAGIPX4qJcIrVru3bdu2YcMGi8zU1NRvvvmGhaSq8corU2v8CJkz5zV6hDYHZid+mAGIPX4qJcIrULvFrbVuKZk7d+6JEydYS6oUyclza/zwkHOkR2hzYHbihxmA2OOnUiK8orQ7Nzc3OTlZa2tJScmkSZPy8/NZTphcWADQbgBmJ2ZdYo8ftNtJxKfFqvVvMy8oKHjppZf4uhWTCwsA2g3A7MSsS+zxg3Y7g5i0+LRYtd2SZ86cmT59OisKkwsLANoNgPow6xJ7/KDdDiMmLT5tsPChQ4cWLFjAosLkwgKAdgOgPsy6xB4/aLcDLF68eP/+/Q7t8tlnn/GIMSYXFgC0G6CyxsL33/+EPTADoN38VDPtFnsWh3Zix7S0tC+//JKlhcmFBQDtBrg7Y+Grrw7+9rfPBgeHNGzo6ubmVqGjoE6dOkgJsccPEV6e2r1r164VK1Y4vfsbb7yh/CdLqIKTi8WasWfP4fDwyJdemsICULnT/dSps11cGk6bNpc2h9o8OynIWAgLixg3buIPP5yzG5a7dn0XEBA4adKMHTv2HDx4KifnMtrNDOB07JmDhhLhd0O7xZjFm8t4kClTppw/f54FpoprtyxXwcEhVVz1aol2x8a2ee21Ba1bt6XNgdkpO/v8tm1f3n9/t2eeGWE3LPv0efS999bctVGAdteGC1L8EOF3SbvFladPn172RwEWFBSIeRt5BApU1uSyc2dmQEDg3Lnz7X7ut56VTp3Ku/fezjY3WeQY3GvHjj2BgcFTpiRL+vPPv3nkkX7Nm3s0adL0oYce27//eI3X7m3b/tmx468V+f7kkwwjF2D0r828++5qMXgXl4YmU+if/jRZ/WfItarNoQb8La5FCx/15Zw5b4WEhNWv30B+z537tjqreHm1SEoaL8EsAR8d3eovf3nX/CA293L06qYMIg8PTy8v79df/4sUe/XVFHlTyZk48RW1jNYgkvIpKe+0atXa1dVVxuO8eYvM63DvvfeZv9GvftVRrYbOAfXbTWf4K7i5uckbrVu3zdGmqLXardUXq1dv7Nr1gcaNG3t6eiUmPvSPf3ytX97gautc7zu0Sc08evRs69ZxEtJq/htvLIyL+5XFH5p0wtjgiuNcrDq69tkd7xbBX/nanZqaWl6uLAaflpbGGlM1J5dPP93l4+M3f/4S6wI5OZfNg9jmuJ06dfb993dzdLRr7ZWe/qm3t++CBX9TXsrAXrPmYxnzWVm5zz47csiQZ2q8dg8b9gfl9KdPf3X48CSdlcBIzkcffSJtKL9lPv3yy2979EhQbyKqVW0ONUm7U1NX+vsHrFmz6fDhH+W3pJUr3AcPnpK9LDatWrVBfy+HLnOKbbRr10E+pn733YkBA56U8gMHPilpcay2bdsvWrRUfxBJeflI8OGHW77//qcPPtgcGBi0cuVH6iY/P3+ZjZWXkpCXan10DqhzCkaG/5EjZ958c3FAQKCjTVFrtVurL+LjE9PS0iVT4nDWrDfCwyMdmlEt3tc87UTvO6fdd74acUiGhmKiGzZ8JgacmXnEurBWGBsJOadj1aG1T2e82w3+KvTvcqDmTS4ff7xDFjMvrxYyeKwLnDhxsX79+jrj9p//3Cf7ZmTsd2i0a+31t7+tksqsXr3RZm0PHz4tI6dma7c0eFRUzPHjFxSHkOlAcsoy9XTrFr95805zdwkNDa+FbQ7VV31kOHzySUaXLj2GDv29knPvvZ3feSfNfH1V/kAkEiB7WWzq3LmL/l4OueavftVRPqYq6ZMnL0n5U6fylJfr139icbnaehBJeXPXl/r8+tdd1U0vvPBfv/vdc8rLZ54Z8cc//tlmfSwOqHMKdoe/Yh7z5i3y8fFDu62vht5zzz2enl7S6bNnvyndbXCGPHbs3Pz5f7Upczozanb2eZurrXO977R2y484t3zkEwMW596y5XObhbXC2EjIOR2rDq19OuPdbvCj3VCBk4uXl/eyZR8sX742KMgkHwotChw4cLJx4yZa4zYn5/L993ebPv1Vi006fw/S2Wvu3PnyXrGxbRTpVB9K8PDDfcXRlePUq1evZmu3TA1jxryovnz88d+IFpdl6pE1o94d6tatK0uIeRvWqjaH6qs+DRq4hISEjRr1x6NHzyqbmjVrLh9K1ZKSlhzlU6uUt9jUvLmH/l4OuWbTps3M50nz8uJD6ntpDSJJHzqUY7N6sklUQ17KacqPJOSl2TVIzQPqnIL+8FeR90pLS0e7bZ67mNnHH++QT33PPjvSyAypZIpzq8JqcEb95psj5gFpXged3nfi7gvzfk9MfCgjY791d8vHDAmYxYuXabWPVhjrh5zTserE2qcz3u0GP9oNFTi5qH+BHTLkmSeffNqiwI4de8LCIrS0Ozl53n333a88K8D4h2ytveSj7T//ue/BBx9OShqv7iuCLsvt3r3fnzjx87Fj52rGXYY6PSKnbzFR9unzaFmmnoYNXWU21+r92tPmUK3Vx+6Cqq76osXGtVvdpD+mzK2lSZOmOtotW/UHkb52y2/RoNdf/8trry2QUWl+fJ0D6pyC/vBXEllZuX/845/VeQbttnnu0vJ2O1f9kSYdN27i44//xqEZNT3909jYNjbr4ETvG9mkdL1yDdii/IQJL9evX9/86woGtdtIyDkdq2XUbouxphP8aDfcjclF1pLg4JBlyz4wL/CXv7z70EOP2Ry3X311qEULny+//Nah0a6z17592ZKQ376+fh9+uEXJd3d3V//hxdq1W2u2dsu5WyzqykKufIHGualHptTZs9/U6v3a0+ZQk7T73ns7q38FUv7Grf752LlNxl2zXbsO6k0mp07lWdxk0r79vfqDyPqv8+o9MEoZmYF/9auOcpxlyz40r4/OAXVOQX/4m0/+Ij1ot752e3v7Gp8hxeekmEMz6ssvT3/qqWE26+BE7xvcJF2v1NM8c/nytYGBwdu2fSnrwooV64zcZKKGscGQczpWHbrJRGu82w3+ctNueSfzl6dPn46KikpOTmbqZ2FTfkS8ZJgdOHDy34/U+DI0NNz8UQDm4/aBB3pNnTrb0dFuZC9lzMu0JenWreOk/NGjZ7ds+TwyMrpma7ec6YABgy0yn3hikPJUR+emntWrN8pH/DffXPzddydEr6Vtu3TpXgvbHGqSdqemrgwMDPrgg83qN7pUCfjrX5drbdLZy7hrylASJ1a+Ujlw4P98pfI3vxkiaclp27b922+nKsW0BpEkgoJM5t9FU7VGKSMSLyNR8hWbV3fUOaDOKRgZ/vLZ/sUXJ7Vq1Rrt1rrJRNq8W7d49SYTrb7o0+fRrVu/+OGHc199dfDJJ59Wm9rIjPrNN0ek3+WTm806ONH7RjYpXd+hQyfzzIyM/V5e3unp25WvVPr4+O3a9Z31obTC2OCK41ysOvqVSq3xbjf4K0S7T5w4ERYWNn/+fOZ9Fjbzn+HDk/r2HaCk/fz85fO31ri999771Ms8xke7wb1kghPdVNS/TZt2DRq4yJiZPv3Vmq3dsbFtrL/auGrVBuUB3s5NPcqnKZm/3N3dmzVr3r17zzVrNtXCNoeapN3Kvad3Hg1W3+LRYMojz6KiYlxcGlpv0tnLoGvm5Fx+4YX/kqHk5dVi3rxFUv711/8iacn54x//bPYYUNuDyPzJa8HBIbKv/lurmToH1H+Gms7wV2jcuLEU2L59N9pt886iRo0aielOmPBydvZ5/b4Qq2vXrkPDhq6ydA4a9Nt//euofnm7/6DHSO87p93/7vomEhI7d2aaP0BQgtP80thbb/1VFiD1axV2w9hIyDkRq86tfVrj3W7wl792HzlyJDg4eMmSJTbLmGPt66WlpV26dDHP2bhxY/v27Rs2bBgeHj5z5kz1Od8WF9fNc2w2PSvQ3Z9c+McN9Aj/LgcYC3ft3+Xcnf/DcnfehX8OX9FdVmX/a085Vqwq/2eictPu7777zt/f//3337cucPv2bXP9tandb775Znx8vJqTkZERFxcnvwsLC48dO9a7d2/1rhUd7dbJARY2tJs2B2YntBvtRrvR7mqv3Xv37vX19fX29t65c6d1gZs3b9avX19Hu7Ozs2Xf48ePqzmJiYmZmZnqLqdPn46MjES7mVxQQLQbAO2uwf91HO2utT81KYwrXLt9fHw2b968devW0NDQq1evWhS4dOlS06ZNtbT79u3b8fHxKSkp5ptatGhh/ahFdS+7d5Kg3UwuaDdtDsxO/DADEHv81EDt/uyzz5T0iBEjhg8fblHg8OHDLVu21NLuRYsWde/eXeTbfJOrq+uZM2ds14Cr3UwuLABoNwDqw6xL7PFTO7VbTV+9ejUsLGzz5s3mBVavXt2/f3+b2p2Tk+Pr63vs2DGLTV27dl28eDHazeTCAoB2AzA7ISXEHj9ot23H/fzzzwMCAi5duqS8/PbbbyMjI8W8bWp3nz593nzzTetNf//73z09PZctW/bzzz9fuHBh69atPXv2RLuZXFgA0G4AZidmXWKPH7T7/3jhhRcGDx6spAMDA1999VWb5SVx//33l5aW2jyU6LuodqNGjTw8PB588MF//OMfaDeTCwsA2g3A7MSsS+zxU3u1G2ons2e/WuOHx5w5r9EjtDkwO/HDDEDs8VMpEY52w/+SmZm5cuX6Gjw2vvnm+7S0NHqENgdmJ36YAYg9fiolwtFu+D82bfp43LgXZs6cU/N+Zs9+ddGiRQUFBfQIbQ7MTvwwAxB7/FRKhN897d61axcrBxASdAEAMAyBcK2d3D3tfuONN2huICToAgBgGALhinbTVcDopQsAgGEIQLii3cDoBboAgGEIQLii3XQVEBJ0AQAwDIFwhUrWbm7DB0KCLgAAhiEQrmg3AAAAAACg3QAAAAAAaDcAAAAAAKDdAAAAAAC1QLu5DR8ICboAABiGQLii3RUOD50BQoIuAACGIRCuaDddBYxeugAAGIYAhCvaDYxeoAsAGIYAhCvaTVcBIUEXAADDEAhXqHzt5jZ8ICToAgBgGALhinYDAAAAAADaDQAAAACAdldsLc2gzwAAAAAA7a5w+abPAAAAAADt1qTst+Hra7e66dSpU5GRkXPmzFFeFhcXjx8/3s/Pz9fXVxLy0qK8xcuSkpIpU6aYTCbZZeHChZLTvXv31atXqyVzcnL8/f2vXLnyy39ehlePoFXJOrZQNh09enTgwIGenp7NmjXr37//xYsX9StpkZZd1Jc7duy47777GjdurPP3AXWTm5tb+/btN23apObLKYeHh3t5eY0ePfrGjRvOVU+rfLmHBFT6qAQAhiEQrlDltLvsD50xot1HjhwRY160aJGaLw6dmJh4+g49e/acOnWqvjLOmjUrPj4+Ozv77NmzSUlJkvPJJ5+0atWqtLRUKTB8+PC5c+dKQnJserDdS/LWBeLi4kSXr1+/LjY/ZsyYESNGGNfu9PT02NhY9WVQUNDKlSsLCwt1KqNmFhQULFu2TCRbzZe2+vEOkpg2bZp+9e65555bt25ZH1arfLmHBFT6qAQAhiEQrlAbtXvfvn3e3t7KJWqV8PDwrKwsJX3w4MGIiAh9o42MjJRiFgfv1KlTWlqaJH744YfAwEBFakUrXVxcykW7zcnPzxd1NqjdSuGMjAx1k7SAQ9q9dOnSHj16qPlqWx06dEhtK63qtWzZMjU1Vb0obvO9zMszeplAAYBhCIQr2l0TtNvHx6d3796DBw82z3d1dS0qKlLSkpCX5kezvt/DvLzKhg0boqOjb926NWTIkJSUFCUzJydH3tGmdis0bdpUjHb37t12tTszMzMhIcHDw0PZsV69ega1OykpadSoUeabtm3bplz8NnKTieDu7r5q1So132ZbaVVPdL99+/b169e3eC+t8oxeJlAAYBgC4Yp21wTt3r59u8hiVFTUunXr1HxHr3a3bNnS+mr37du34+LiJk6cGBoaqt4dvnXr1q5du9rUbiVRWFiYlpZmMpnsarfUavny5ZcuXRKzz8vL07pwbqHdYr3BwcH5+fkWm0aOHPnCCy9ovZd1DVu0aKHmHz58WElLo6ltpVU9rcMaLM/oZQIFAIYhEK5od/lz175SKW/k5+enfo1v8uTJ6r3dCQkJr7zyir7RJicnx8fHHz9+XL23W2HNmjVS5m9/+5tqpR06dDCPP2tXvn79+urVq8WM7Wq3VDg9PV2EXt534MCBBrU7NjZW9rLYJJ8ZvL29RXaNaLdFDSW/T58+yr3dvXv3Vu+D16qe1mENluebGZUOXQDAMAQgXGugdtuloKBg/fr1yrVbm8Jt98YJNT1hwoRBgwYp6aKiorFjx/reQRLqTRRaRnvz5s1JkyYFBQX5+/svXrxYLbB27dqWLVuWlJQoL+VoEydOlMI2tVuhUaNGnTt3/uKLL+xq95YtW6Kjoxs0aGAymVJSUqwPZfN5KQMGDLA+pnjz/Pnzdd7L/LCNGzfu0qWLehuM8iSTsLAwT09P+cihXtfXqp7WeRksDwAAAIB231X279//0ksvxcXF7dmzp8q2VN++fdV7oCuzwypSYfFjAAAAgBqo3QUFBStWrEhMTPTz8zOZTNZfPawilJaWLlmypE2bNuozBNFuAAAAAKgG2q1c3o6IiOjUqVNgYGBISEiVdW5FRkNDQzMzM2t+NKDdAAAAANVdu3ft2qVe3m7VqlXbtm397lDFnRsqNCRoBLoAgGFIIwDhinaXMyNHjgwPDw8ICAgKCvID8PPjOUSVDl0AwDAEIFxroHZLV+Xm5o4dOzY0NFTkWxEvSbdu3frYsWP0BKMX6AIAhiEA4Yp2l2dXlZSUrF27tkePHoGBgcqXKTFvRi/QBQAMQwDCFe2uqK5SL36LfLdq1QrzZvQCXQDAMAQgXNHusqJ1G75y8btnz55t2rTBvGsVfDODLgAAhiEQrmh3JZCbm5uammrzv1QCAAAAAKDdAAAAAACAdgMAAAAAoN0AAAAAAGh3+cBt+EBI0AUAwDAEwhXtrnB46AwQEnQBADAMgXBFu+kqYPTSBQDAMAQgXNFuYPQCXQDAMAQgXNFuugoICboAABiGQLhC5Ws3t+HX5DCqU4eQqI7QBQAMQwDCtQZqN6DdAAAAAGh3pbFv376xY8e2bNnSxcXFy8urU6dOCxYsKCkpoW/QbgAAAAC0u9xo167dm2+++d133xUUFOTm5v7ud78ThxsxYgR9g3YDAAAAoN0VxZUrV8Th3N3dbbrdwoULw8PDvby8Ro8efePGDSW/tLR05syZoaGhHh4ew4YNE3236YLmL3V2sUAr36Zommf279/f/KXWYbXKGzmm1mGdaBOdE9SqgPRU3759PT09p0+fLpnyW9L9+vXLz8/X31FNnDp1KjIycs6cOcrLo0ePDhw4UA7SrFkzKX/x4kW7dSsuLh4/fryfn5+vr68k5KV+qFi3rfUx7Tad8WrbrENJScmUKVNMJpNUWwoYaX8FNze39u3bb9q0Sf99AQAAoLZrt8Hb8Ldu3SqGERUVZVOSEhMTf7yDJKZNm6bkz5s3r1evXidOnMjLyxs6dOiECRPsarcTu2jl2Nyanp4eGxtrbnIWCq5f3sgxdQ5bvieoVYFx48aNGDFCjj979mzJlN+Slhzr97LYUUkcOXJEXHnRokXqG8XFxe3YseP69esi9GPGjLH+i4d13cRfJRJO36Fnz55Tp07VDxVztFpPv+mk2mLMRqqtVYdZs2bFx8dnZ2efPXs2KSnJePvLB4Bly5aJxBtsrnIclQBQ6YsjAOGKdjuAkYfOHD9+PCIiom7duh9//LFNAc3KylLShw4dkpJKOiYmRmRISZ87dy4kJMSuYjqxi3Htzs/PDwoKysjIUAuLG7m4uGhpt3V5I8cUrl69avOw5XuCWhUQ+8zNzbXYKycnJzQ0VH9HSezbt8/b23vAgAFaLansZbdu4eHhakgcPHhQDQmtUDFHq1N0mk6ptnqJWr/aWnWIjIyUqtr95GZTu5cuXdqjRw+DzVVeoxIAKn1xBCBc0e5y7qolS5Y0bty4Xr16y5Yt0zKSoqIiJS0JV1dXJe3m5mb+p3mxdruK6cQuxrU7KSlp1KhRFjLq4+Ojpd3W5Y0cUzh8+HBwcLCjJ6h/q4xWjnUFGjZsqN44oWZKjtovWjtKQlqjd+/e7du3N3+jzMzMhIQEDw8PpWISCXbrJu9lMyS0QsUcrU7RaTql2oMHDzZSba06mNfZoHaruLu7r1q1ymBzMYEC4DEAhCvabcmZM2cefvhhUYdOnTrt27dPx0hENJV0VlaWevkwOjr65MmTdg3G/KUTuxjU7oyMDFFh5f5mtfDWrVu7du1qU7ttljdyTOGdd97p169fRZ+gVgUkx+bVbpPJpL+jJLZv3y7q6e3tvW7dOvWNpEOXL19+6dKlW7du5eXlGambztVum6Fijlan6DSdUu2oqCgj1daqQ8uWLZ272l1YWJiWltaiRQuDzcUECoDHABCuaPd/sGbNGk9PzyZNmrz99tulpaX6UtunTx/lZtnevXurN/LOnz8/MTFRFEe8ZO/evaqJ6iimE7sY1O7Y2Nj09HTzwqJcHTp0MD99czOzLm/kmMKFCxck/6OPPqroE9SqQFJS0siRIy9fvjxnzhzJlN+SlpyxY8fq76gmxowZ4+fnp34XUNJSuLi4+Pjx4wMHDjRSt8mTJ6v3dickJLzyyiv6oaKi0yl2m27Xrl1Gqq1Vh+Tk5Pj4eCns6L3d169fX716tfr3DbvNxQQKgMcAEK61VLu1bsOvo4HNkgsXLgwLCxNNF19RH1shsp6SkhITE+Pu7t6xY8eNGzfqHNnuLmXUbvP7lZXCvr6+EydOvHnzpk3tti5v5Jh2260cT1CrAnl5eY888oj0xYwZMyRTfkv60UcfFfm2W3M1JCZMmDBo0CDl5ZYtW6Kjoxs0aGAymaTyRupWVFQklu97B0moN29ohYqKTqcYaToj1daqg7zppEmTgoKC/P39Fy9ebKT9FRo3btylS5fdu3dbv++sWbOkgPVpOj0qAaDSF0cAwhXtrtS6lvnh0DXp8dJ2nzZYvbqm5tXnLtdh8+bNcXFx06dPP3bsGPMaAAAA2o12o91od0Wxdu3agIAAPz+/AQMGbNiwwYmL3wAAAIB21zRprmlhhHZXjTqkpaUFBQW1bt26W7durVq14uI3AAAA2g0AFWjefn5+JpOpR48eIt9c/AYAAKhd2u0HAJWBmHdAQEDbtm2VZ7Dow5wIcJfhO2pAuKLd5Q8PnQFC4i6wZ88e8eywsDBFo/39/SU9fvz4n376Sfn0q//ZmAYEYCYEIFzRbmD0giHnNplMinD36NFj/fr1xsUa7QZgJgQgXNFuYPSCfecODQ0VdTa/vO2QWKPdAMyEAIQr2g2MXrDj3JGRkQkJCRaXt9FuAGZCAMK11mk3t+EDIVFBnDlz5r333jt//rzdkmg3ADMhAOFa87UbACodtBsAAADtBgC0GwAAAO0GALQbAAAA0G4AQLsBAADQbm7DB0IC7QYAZkIgXNHuioeHzgAhgXYDADMhEK5oN10FjF60G+0GYCYEIFzRbmD0AtpdKykqKqIRmAkBCFe0m64CQgLthgohIyMjISGhefPmrq6utAYzIQDhinY7ALfhAyGBdoNBDhw40KxZsyVLluTk5Ny6dYsGYSYEIFzRbgCoFdr9xRdf9OvXz9fX193dPSws7A9/+MO5c+doz4pj0KBBycnJtAMAANoNALVLu+Pj47dt2/bzzz/n5eVNmjSpTp063bt3pz0rjmbNmklr0w4AAGg3ANQu7Tbn2rVrot2NGjWy3lRcXDx+/Hg5jq+vryTk5f9ONFao+QsXLgwPD/fy8ho9evSNGzeU/NLS0pkzZ4aGhnp4eAwbNqygoOA/pi1bh9Lfy+YuWuXNj2n+0jy/f//+do9jcRCbZ2qzxeQIUmzIkCHNmzcPDAx86aWXbt686WgLq9U7evTowIEDPT09ReWl2hcvXrS9GGicXUlJyZQpU0wmk7ypnIJ+h2pVT6sLHG1qndN0tPd37Nhx3333NW7c2DqQAADQbgCofO0W554zZ444ytNPP229VfwsMTHx9B169uw5depUu3Yl5X+8gySmTZum5M+bN69Xr14nTpzIy8sbOnTohAkTzN3a/Gjmaa29tHbRKm/XBdPT02NjY+0ex+IgNs/UZouJMirl1fwZM2bot7DNBlGIi4sTxbx+/fqVK1fGjBkzYsQIfe22OLtZs2bFx8dnZ2efPXs2KSlJv4m0qqfVBY42tc5pOtr7QUFBK1euLCws1DogAEA11m5uwwdCorprt3pdMDw8PDc317qA5GdlZSnpgwcPRkRE2LUrtfyhQ4fU8jExMUeOHFHS586dCwkJUfe9evWqi4uLTf3S2kuM0+YuWuX1XTA/P1+MLSMjw+5xLA5i80xtttjNmzfNy0t+ZGSkfgvr+Kg5SuV1tNv67OSt5Y3030V9qVU9rS5wtKl1TtPR3vf29q4i2s1MCCzcaHf5w0NngJCo7tqtmND06dPFUbp162a91dXVVX3ItCTUJ9/p2JXN8m5ubuZ3BdStW1fd9/Dhw8HBwTb1S2uvnJwcHx8f6120yuvcEiO/k5KSRo0aZeQ4Fqds80y1WqxevXrm+fIW+uV1fDQzMzMhIcHDw0OpnhzZ4jT1z878He1qt1b1tLrA0abWOU1He3/btm3KdfRKv8mEmRBYuNFuugoICbTbNsq93TYfJu3E1W7RaCUtO6rlo6OjT548afPd33nnnX79+tnUL629tm7d2rVrV+tdtMrr1DYjI0OkXz57GDmOxUFsnqlWi0nCZr4TV7ulzPLlyy9dunTr1q28vDwtv9Q6u5YtW5b9ardWFzja1Dqn6WjvCyNHjnzhhRe0DshMCEC4ot3A6IVK0O6EhIRPP/308uXLYm+vvPKKOMqDDz5oXWzy5Mnqrb2yi5S0a1d9+vRR7nju3bu3eivw/Pnz5TjiqYWFhXv37lU9+8KFC7GxsR999JFNi7K5l1hghw4dzINN3UXrXXRqK++enp5u8DgWB7F5plot9uc//9lmvlZ5HR+VbpU6FxcXHz9+fODAgTrabfPskpOT4+PjZV8j93bbrJ5OFzja1Dqn6Wjvy6cCb29v+RyCdgMQrmg3MHqhCmn3Z599Jk7TvHnzpk2big9NmjRJFNy6WFFR0dixY33vIAn1fgMdu1q4cGFYWJinp6confrgi9LS0pSUlJiYGHd3944dO27cuFEtr/8sC+u9pCYTJ05UnwRi/u4676JV2wEDBhg/jsVBbJ6pVouJO/7hD38QL7TI1yqv46NbtmyJjo5u0KCByWSSeupot82zk6aT7g4KCvL391+8eLF+E9msnk4XONrUOjmO9r58ChJT1zkgMyEA4VqNtZvb8IGQqL7aXVETkIOuY7N8tXgGBQ/KAGZCIFyBlQAA7Ua70W4AAEC7AQDtrgFTLdoNAIB20wQAaHdlaTcAAADaDQC1UbsrFzoIAADQ7nKA2/CBkKj62l1l6wbATAhAuKLdRuGhM0BIoN1oNwAzIRCuaDddBYxetBvtBmAmBCBc0W5g9ALaDcBMCEC4ot10FRASaDfaDcBMCIQrVL52cxs+EBJoN9oNwEwIhCvaDQBoN9oNAACAdgNAZWt3QUHB+vXr8/Pz0W4AAAC0GwDKX7v379//0ksvxcXF7dmzp1LqBgAAgHYDQI3V7oKCghUrVvTp00c2mUymjIyMyqobAAAA2m0UbsMHQqIaabdyeTsqKuqhhx5q3759UFDQJ598Uol1A2AmBCBc0W6j8NAZICSqvnarl7dFtR977LHIyEjJvAvOjXYDMyEA4Yp201VASNQi7a5c6CBgJgQgXNFuugoIiVqh3fv27RswYEBgYKCqwu3bt2/Xrt2xY8doPQBmQiBcaQS0Gxi9UD7arSRKSkpeffXVtm3bKubdunVrzBuAmRCAcK022s1t+EBIVBftVlEvfvv7+7dp0wbzBmAmBMIVqoF2A0C1024F5eJ3586dMW8AAAC0GwAqSrtVcnNzU1NTK+i/VAIAAKDdAIB2AwAAANoNAGg3AAAA2q3AbfhASKDdAMBMCIQr2l3h8NAZICTQbgBgJgTCFe2mq4DRi3aj3QDMhACEK9oNjF5AuwGYCQEIV7SbrgJCAu0GAGZCIFyh8rWb2/CBkEC7AYCZEAhXtBsA0G60G6rGylSHtQkA0G4AQLsB0G4AALQbACpUu995553w8PA6d6A9Ae0GAEC7AaD8tXvt2rWBgYHZ2dloN6DdAABVV7u5DR8IiWqt3Z9++qmvr++BAwcUK7IpRunp6e3atXNzc2vfvv3WrVuVzKNHjw4cONDT07NZs2b9+/e/ePGiqlYWqPkLFy4MDw/38vIaPXr0jRs3lPzi4uLx48dLJaUakpCXSn5JScmUKVNMJpNskh1tOpzNA5aWls6cOTM0NNTDw2PYsGEFBQU2nc/8pc4uWueitUmrWbTeWsqYv9R6O63yRo6pdVgn2krnxLUqcOXKlb59+0qDTJ8+XTLlt6T79euXn5+vv6OaOHXqVGRk5Jw5cxwNPPUIWjGmFUJGOpGZEFi4oRK0m4fOACFRfbVbplofH5+vvvrKXFysiw0ZMuTgwYPXr19///33W7RooWTGxcXt2LFDMsWrxowZM2LECLvGlpiY+OMdJDFt2jQlX9xaXp6+Q8+ePadOnarkz5o1Kz4+Pjs7++zZs0lJSTZF0+YB582b16tXrxMnTuTl5Q0dOnTChAl2tduJXbRytJrF5l7yeSY2NlZ9KRJsoeD65Y0cU+ew5XviWhUYN26cNIIcf/bs2ZIpvyUtOdbvZbGjkjhy5Ih89Fq0aJHxFraum1aMaYWQkU5kJgQWbkC7gdGLdjuw1dfXd/v27ea+onMbQFFR0YoVKx599FHrTfn5+UFBQXa1OysrS0kfOnQoIiJCSYeHh6v5IvdqfmRkpLzUm+Y0DhgTEyOupqTPnTsXEhJiVyWd2EUrR6tZrPdStmZkZKgHEc9zcXHR0m7r8kaOKVy9etXmYcv3xLUqINKcm5trsVdOTk5oaKj+jpLYt2+ft7e3zb916LSwdd20YkwrhIx0IjMhsHAD2g2MXrTbga11NNAq6enpuXHjRiUnMzMzISHBw8ND2VSvXj272i3irhq8q6urkpaE3Xytytvc0c3Nzfxc6tata1clndhFK0erWaz3SkpKGjVqlIWM+vj4aGm3dXkjxxQOHz4cHBzs6Inrh4RWjnUFGjZsqN68oWZKjtpfWjtKQlqjd+/egwcPdqiFreumFWNaIWSkE5kJgYUb0G5g9KLdjm21dmutrYWFhStXrvTy8lJeRkRELF++/NKlS7du3crLy7N5j6+FRYn/KemsrCy7V7tbtmxp92q3zQNGR0efPHlSS0xtvnRiF60crWax2CsjI0NUWLm/WS2zdevWrl272mw6m+WNHPOXO4+p6devX0WfuFYFJMfm1W6TyaS/oyS2b98uNhwVFbVu3TrjLezQ1W6bIWSkE5kJgYUbKkG7uQ0fCIkar90jRow4deqUaPeyZcvEhtXDpqenFxcXHz9+fODAgUa0u0+fPsp9tL1791bvr508ebJ6321CQsIrr7yi5CcnJ8fHx8vBde7ttnnA+fPnywFFp6TCe/fuVY1TRyWd2EUrR6tZLPaKjY2VYuYHEe3r0KGD+eJn3nTW5Y0cU7hw4YLkf/TRRxV94loVkL4bOXLk5cuX58yZI5nyW9KSM3bsWP0d1YRMKdKq6vca7bawdY5WjGmFkJFOZCYEFm6oBO0GgBqv3StWrAgLC2vcuHG3bt1EzpTMLVu2REdHN2jQwGQypaSkGNHuhQsXynE8PT1FxdSnSRQVFYmB+d5BEuof/W/evDlp0qSgoCB/f//FixfbrK3NA5aWlkp9YmJi3N3dO3bsqN4Vo3M7jc4ujtqnVrNY7DVgwACLg8jpT5w4Uc7aZtNZlzdyzF/s3UdUjieuVYG8vLxHHnlE+mjGjBmSKb8l/eijj4p82625mjlhwoRBgwYZbGHrHK0Y0wohI50IAIB2A6Ddzmt3xc5K5e0uZT9gbdApu08brNYxcBfqc+bMmc2bN6tGDgCAdgOg3Wg32o12V0h9RLvbtm07dOhQ5fH2AABoNwDajXZD9fsMUC3qI+YdGBgoQ6l9+/Zvv/02F78BoHK0m9vwgZBAuwFqPGLerVq1Uv5talBQ0ODBg/UvfjMTAgs32l3+8NAZICTQboBaYt6tW7cODw/3u4O/v7/OxW9mQmDhRrvpKiAkaqN2A0BFEBISEhAQ0KZNG+Uph/owUwELN9pNVwEhUfO1myYCKDtffPFFcHCw4tCdO3fu1KlTx44dFyxYcP78eYYhsHCj3XQVMHrRbtZ7gHJz7pCQkPj4+IiIiBEjRuzcuZNhCCzc8AtfqYRKhJBAuwFqpHMHBQWZX95mGAILN9xt7QYAtBugBrNnz56oqCjry9sMQwBAuwHQbtZ7gPLhzJkz7733ns3L2wxDAEC7AdBu1nsAhiEAoN0AwHoPwDAEALTbUbgNHwgJ1nsAYBgCCzfaXeHw0BkgJFjvAYBhCCzcaDddBYxe1nvWewCGIQALN9oNjF5gvQdgGAKwcKPddBUQEqz3AMAwBBZuqHzt5jZ8ICRY7wGAYQgs3Gg3ALDes95DJXDgwIHR1Z/Zs2e/ZQxPT8+d2sjWtwCgppCbm4t2A6DdaDdUFcRZ6wAA1ETefvtttBsA7Ua7oWpp92OPPTa7evLcc89J/ceMGfO2MTw9PT/XRra+DQDVnyeeeALtBkC70W6oitot/ppXPdm0aZPUf+fOnQxDAFB56623KlO7uQ0fCAm0G+AuaLfyt90qrt3mf4auOsNQq1YALNzVTLt56AwQEmg3wF3W7rug4GXRbpu+6+vr+9vf/vbMmTOVK99EJrBwo93A6AW0G9DumqndkhDnlnVa0r169UK7gYUb7aargJBAuwEqX7uTk5Nlx7p16/r4+DzzzDO5ubkWqm3xSIFqod2ytaCgQNKNGzeWl1evXn3++ecls1mzZo8//vjp06etzdg8rV/e4h4Sm5loN7Bwo93A6AW0G9Du/+C//uu/vvrqq7Nnzy5YsECOMGLEiEq52q08yeSf//xnuWi3erU7ISFBXg4fPlzSH3/8cWZmpiQSExP1tdvR8jYlG+0GFu5qr93chg+EBNoNUI7arXLx4kU5QlBQ0N3X7qSkJDn+Cy+84Ogw1Lm328fHZ/DgwT/++KPkt2jRwnxTw4YN9TXa0fJoN7Bw10ztBgC0G6C8tPuzzz574IEHvLy86tatq2iiJO6ydjvh3L8YuMnEvLC3t7fkX7hwweIgWhrtaHm0GwDtBgC0G9BuPUwmk+y1evXq8+fPnz59Wku1K067nXNuR7VbuYPlxRdfLCoqMqLRjpZHuwHQbgBAuwHt1iMgIED2+uijj06dOjVy5Egt1fby8pL0t99+W0Wc21Htvnbt2vjx44ODg9WL+ublrb8QqV8e7QZAuwEA7Qa02zHt3rx5c5s2bVxcXIKCgt544w0t7ZZN6u3OVcG5f6mwf5dTLqLMv8sBqCHazW34QEig3QDlpd2VRRmdu+KGIaIMLNxo9//BQ2eAkEC7Aaq1dpfduRmGwMKNdtNVwOhFu1nvAe2ucOdmGAILN9pNVwGjF+1mvYfK1O7nnntuUxVGeUJI2Z2bYQgs3Gg3XQWMXrSb9R4qU7urPuXi3AxDYOFGu+8G3IYPhATaDWDN7NmzZXEaM2bMziqM8f/9zjAEFm74hQcIAgDrPVSXxYlhCABoNwCw3gOg3QxDAEC7AYD1HtBuhiEAoN0AwHoPgHYzDAHQ7gqE2/CBkGC9B0C7GYbAwo12Vzg8dAYICdZ7ALTb6WFo/UxDggdYuNFuugoICbQbAO2uEO0mYICFG+2mq4CQQLsB0O7K127zMv3791dfpqent2vXzs3NrX379lu3bjU/psXl8+Li4vHjx0tNfH19JSEvbRZ2aBflfTdt2mRxOhbHKS0tnTlzZmhoqIeHx7BhwwoKCqxPyvyl1slqHce6PY2fi8W+CxcuDA8P9/LyGj169I0bN5yrv/4uNqun1Qvdu3dfvXq1eticnBx/f/8rV66wcKPdAIQE2g2Adjuj3Y0aNXJ3d2/durVMoSUlJTraLZ4dGxurvhwyZMjBgwevX7/+/vvvt2jRwqYOKkyZMiUxMfH0HXr27Dl16lQds9ffRS0pNrls2TKRVNU1zQ+ipufNm9erV68TJ07k5eUNHTp0woQJBrXb4mS1jqNzFupLu6evFJYyP95BEtOmTXOu/s7tYjPnk08+adWqlTSs8nL48OFz585l4a692s1t+EBIoN0AaLfTw/Dhhx/+9NNPL1++fPLkyb59+0qjvfTSS1o2mZ+fHxQUlJGRYSFnRUVFK1asePTRR3W0Ozw8PCsrS0mLqUdERNjVbq1dzLV76dKlPXr0UF6K/bu4uFgfMCYm5siRI0r63LlzISEhRrTb+mS1jmNEu+2evlJYLXPo0CG1jKP1d24XrZxOnTqlpaVJ4ocffggMDCwsLGThrr3aDQBoNwDaXS7D8MyZM9Jo/v7+WjaZlJQ0atQoCzlTrpd7enpu3LhRR7tdXV3FzlVNl5d2hU9rF/MbIdzd3VetWqXk5+Tk+Pj4WB/Qzc3NfJe6detaH8fijgubJ6t1HCPabff0lcI2y+jUX+utndhFK2fDhg3R0dG3bt0aMmRISkoKcwvaDQBoNwDaXdZheP78eWm05s2b2zTCjIyM4ODg/Px8azkrLCxcuXKlerPHXbvaLe+blpam3tyydevWrl27Wh9QrPHkyZPGFVnrZLWOY+SYBq92Hz58WElLYbWMo/V3bhetnNu3b8fFxU2cODE0NNTmLemAdgMA2g0sTmi3/a3du3ffsGHDhQsXzp079+STT0qjjR8/3qauxcbGpqenW8jZiBEjTp06Jfq7bNmyli1b6mj35MmT1ZubExISXnnlFbvCp7WLWvL69eurV68WP1Y8tUOHDuZ3CavF5s+fL8cRo5V67t27t1+/fna12+bJah3HiNfaPX2lcJ8+fZR7u3v37q3e/+1o/Z3bRafv1qxZI/l/+9vfmFjQbgBAuwHQbieH4eeff/7YY4/5+vo2btw4Li5OWuzWrVs2jXDAgAHWcrZixYqwsDDZt1u3bqJ3OupWVFQ0duxY3ztIQr2bQkf4tHZR752Q9+3Spcvu3bslU8pMnDjx5s2b1gcsLS1NSUmJiYlxd3fv2LGj1s0w5tpt82S1jmNEu+2e/i//fpKJtKenp2dSUpJ6aVmn/lr3yTh6yvravXbtWvlMZfO7tlC7tJvb8IGQQLsB0G6GYQ2g7A9Qr6BHsPft21e9gZ6Fu1ZrNw+dAUKC9R4A7WYYot0Vod2lpaVLlixp06aN+gxBFm60G4CQYL0HQLsZhrVduyuiSqGhoZmZmSzcaDddBYQE6z0A2s0wBBZutJuuAkYv6z3rPaDdDEMAFu6aod3chg+EBOs9ANptdxhWLgQksHDXBO0GALQbAO2uysOQSQAA7QYAtBvQboYh2g2AdgMA6z0A2o12AwDaDQBoN6DdDEO0G6C2aDe34QMhwXoPgHaj3cDCjXZXODx0BggJ1nsAtBvtBhZutJuuAkYv6z0rLqDdaDcACzfaDYxeQLsB7a71w7CgoGD9+vX5+floN7Bwo910FRASaDcA2l3+w3D//v0jR45s06bNnj17KqVuACzc1Ua7uQ0fCAm0GwDtdnQYFhQUvPfee506dZJNJpOp4pybSQBYuGuOdgMA2g2AdhsfhsrlbVHt4OBgyY+MjKxQ52YSAEC7AQDtBrS7Fg1D9fK2CLffv7kLzs0kAIB2AwDaDWh3LRqGlQsBCYB2AwDaDWh3rRiGubm5ycnJMTExrVu3DggIUGw4Kirq2LFjRAsA2m0IbsMHQgLtBkC7DQ7DkpKSzZs3Dxw4MDw8vGXLlpg3sHCj3Q7AQ2eAkEC7AdBuR4ehevE7ICBA/BvzBhZutJuuAkIC7QZAuytqGKoXv9u2bYt5Aws32k1XASGBdgOg3RU7DHNzc1NTUyvov1QCsHCj3cDoBbQb0G6GIQALN9ptDG7DB0KC9R4A7WYYAgs32g0ArPes94B2MwwBAO0GANZ7qLmLkzBt2jR5Kb9rdloGWo0/R9KkSSvTGtoNgHaj3VDVrwkxDAGg5s1saDcA2s16D1VRu+uYUcVPwaFKMgzLpbWrRWAAMxtfqYSqAiGBdgPY1W6bLydOnFilrAvtruJtDizctU67eegMEBJoN0DZtbuoqMjb2xvtRrvRbhZutJuuAkIC7QaoQO1eunTpI488YnOr9e0HV69eff755yW2mzVr9vjjj58+fdr64Gra5kHUxIYNG8z3+vnnn5944gk3Nzfz8vJSMmWTzo5K+oMPPqhXr54k/vu//9s8/5577unateuePXu06pOXl/fMM8+0uMPTTz8tLy1aQI7QuXPnnJwcHVt1qJW0qtqkSRO1qjoVuHbt2rhx44KCgiTfbjsLDRs2jIiIWLx4sc57od0s3Gg3XQWEBNoNUOHa3bFjx08//dR86+3btxXbs95x+PDhkv74448zMzMlkZiYqKPd+i9F+8w3DR06VKn2Dz/8oORLQl5KQmxYZ0clXb9+ffk9ZcoUi7MWmZb81q1ba9VHnFterl69euXKlZKQl+bF1Pz+/ftrabfSUMZbSauqR44cMa+qVgWee+45efnyyy8XFxcb6d+vv/5aEs2bN9d5L7SbhRvtpquAkEC7ASpWu/fs2dOqVSvFs9WtN27ckHSjRo2sd1Qs1vxKqnkZm1/Os/ly9+7d0dHR5pu8vLwkffXqVfNd5KUkZJPOjuo7/vrXv1bf5e9//7t8nJBTUDbVrVtXqz7K+16/fr2wsFAScoLmxdR8Dw8P66YuKSlRLsk72kpGqqpVAeWOoMuXLxvpX5Vx48Y51CzAwo12/wfchg+EBNoNUEbtfuaZZ5TbD8y3/vTTT5KOiIiw3lFxvgsXLugc3Ih2P/HEE6tWrTLf5OnpaUS7rXdUDVK5wKxkBgUFycu9e/f6+vrq16cs2n3lyhXZZDKZHGolraoWFRVZn1cZtVsSGRkZkmjTpo3Oe6HdLNxoNwCg3QAVq93+/v4FBQUWW5csWaIIrvWOyh0OL774onhbWbS7bdu2paWl5pueeuoprZtMhg4dqrOjkp43b578lkF36dIlyfTx8ZGXX3/9ddOmTfXrY/AmE7U1zElNTZVNw4cPd6iVtKq6cOFC6/OyroBy8MmTJxu8yUS50UW5yUTrvdBuQLsBAO0GqFjt/tOf/qTlzTbvG7l27dr48eODg4OVS7Y2VduIdn/44YcWmy5evPj4449bf6VSMmWTzo5KWly8R48ekhg8eLBkrl27Vj5RGLnpRflKpdcdtL5Sed999508edK6qZs0afLkk08qF57ND6vfSgarqlUB5SuVgYGB6lcqddpZaNCgQVRUlLi7Q80CgHYDANoNUCbtNmJXNgvcTSerCg8QrHQNvWsV4N/lANoNAGg3QHlqt0MehnbXHu0GQLvtw234QEig3QAVod0MQwAWbrT7P+ChM0BIsN4DoN0MQ2DhRrvpKmD0st6z3gPazTAEYOFGu4HRC6z3gHYzDAFYuNFuugoICdZ7ALSbYQgs3PALX6mEqgYhwXoPgHYzDIGFG+0GANZ7ALSbYVgh8KhBQLsBgPUeAO1mGKLdAGg3ALDeA9pdi4fhrl27unXr5ubmFh0dnZaWhnYDoN0AgHYDoN3lPAwPHDjg6uravXv3EydO5ObmPv/882g3ANqt+RmdPgBCAu0GQLud2zp48GBpqH/961/GjbZ///4WglvnP1HzS0tLZ86cGRoa6uHhMWzYsIKCApt+rL6sYwv9Cly5cqVv376enp7Tp0+XTPkt6X79+uXn5+vvqCZOnToVGRk5Z84c5eXRo0cHDhwoB2nWrJmUv3jxot26FRcXjx8/XhrZ19dXEvJS3WXhwoXh4eFeXl6jR4++ceOGVttaH9Nu0xmvts06lJSUTJkyxWQySbWlgJH2V3Bzc2vfvv2mTZv035eFu2ZqNw+dAUIC7QZAu50ehrJJGqpz586NGjWS9KhRo65du6aj3enp6bGxsRZubf7SPD1v3rxevXqdOHEiLy9v6NChEyZM0NduIzkWFRg3btyIESPk+LNnz5ZM+S1pybF+L4sdlcSRI0dEPRctWqS+UVxc3I4dO65fvy5CP2bMGDmU3bqJvyYmJp6+Q8+ePadOnaqWlPwf7yCJadOmWTesVuvpN53xamvVYdasWfHx8dnZ2WfPnk1KSjLe/vIBYNmyZSLxBpuLhRvtBrQb0G5AuxmG/0ODBg2koUTCxLblt6R///vfa2l3fn5+UFBQRkaGuZZdvXrVxcXFprHFxMSIICrpc+fOhYSElFG7rSsg9pmbm2uxV05OTmhoqP6Okti3b5+3t7d6rdcaZS+7dQsPD8/KylLSBw8ejIiIUEuq+YcOHVLzzRFhtdl6Ok3nULW16hAZGSlV1TqCvnYvXbq0R48eBpuLhRvtBrQb0G5AuxmG/0NgYKA0lHJLhvyWtKenp5aHJSUljRo1ykLLDh8+HBwcbNPY3NzczG9XqFu3rlpG674Ufe2zrkDDhg3VGyfUTMlxdXXV31ESPj4+vXv3Hjx4sPkbZWZmJiQkeHh4KBWrV6+e3brJexUVFSlpSZi/tc18c+QTglTD+uA6TedQtbXqYF5ng9qt4u7uvmrVKoPNxcKNdgPaDWg3oN0Mw//h4YcfttBumxcsJT8jI0P0WilprmXvvPNOv379bBpbdHT0yZMn7VqdQe22WQHJsXm122Qy6e8oie3bt4t6RkVFrVu3Tn2jiIiI5cuXX7p06datW3l5eUbqpnO1Wz6TKGkpYPNq99atW7t27Wp9cJ2mc6jaWnVo2bKlc1e7CwsL09LSWrRoYbC5WLhrlHZzGz4QEmg3ANrt9DD84osvLG4yefnll216WGxsbHp6uoWEXbhwQfI/+ugjm8Y2f/78xMRE0T5xtb1796p27px226xAUlLSyJEjL1++PGfOHMmU35KWnLFjx+rvqCZk1ZD2Ub8LKGkpXFxcfPz48YEDBxqp2+TJk9V7uxMSEl555RW1ZJ8+fZT7qnv37q3e860iHtyhQwdz6VQPbrfpDFZbqw7Jycnx8fFS2NF7u69fv7569Wr17xt2m4uFu0ZpNwCg3QBod1mG4apVq1q1auXi4hIeHj5t2rSbN2/a1O4BAwZYS1gdDZStpaWlKSkpMTEx7u7uHTt23LhxY1m022YF8vLyHnnkEU9PzxkzZkim/Jb0o48+KvJtt+Zq5oQJEwYNGqSkt2zZEh0d3aBBA5PJJJU3UreioiKxfN87SEK9eUN5ikhYWJhUSdRWfcKJipSfOHGieYM71HRGqq1VB3nTSZMmBQUF+fv7L1682Ej7KzRu3LhLly67d+822FyAdgMA2g1oN8OwHLCpWZXlXlXN+apCfSqxDmfOnNm8ebP1hw1AuwEA7Qa0m2GIdqPd5Ylod5s2bcaPH3/s2DEmJbQbANBuQLsZhjUEtLsK1kHMOyAgQCKwW7dua9eu5eJ39dZubsMHQoL1HgDtZhhClUXMOzIyUoIwKCgoNDTU+uI3C3e10W4eOgOEBOs9ANrNMIQqbt5RUVF+/yY4ONj84jcLN9oNaDew3gPaXXOGIUBVw9/fv02bNrt27WLhRrsB7Qa0G9BuhiFAObB79+6QkBDFtsPCwsS227dvv2DBgvPnz7Nwo92AdgPrPaDdDEOA8nTutm3binP//ve/37lzJwt3tdRubsMHQoL1HgDtZhhClXXuoKCgwMBA88vbLNzVVbsBgPUeAO1mGEIVZM+ePS1btrS+vA1oNwCw3gPazTAEKB/OnDnz3nvv2by8DWg3ALDeA9rNMAQAtBsAWO8B0G6GIQAzG1+phCoCIcF6D4B2MwyBhRvtLn946AwQEqz3AGg3wxBYuNFuugoYvaz3rPeAdjMMAVi40W5g9ALrPaDdDEMAFm60m64CQoL1HgDtZhgCCzf8wlcqoapBSLDeA6DdDENg4Ua7AYD1HgDtZhgCANoNAKz3gHYzDNXl3BZEFwDaDQBoNwDaXVHDcNOmTdKkJpOJ6AJAuwEA7QZAuytqGHbt2lWadMmSJdabJH/hwoXh4eFeXl6jR4++ceOGkl9aWjpz5szQ0FAPD49hw4YVFBSo5S12V9M6u9i86M71eGBm4yuVUGkQEmg3ANpd7sPwiy++kPYMCQm5efOmTe1OTEz88Q6SmDZtmpI/b968Xr16nThxIi8vb+jQoRMmTLCr3U7sopUDLNxodznDQ2eAkEC7AdDuih6GDz/8sLTnO++8Y3OrbMrKylLShw4dioiIUNIxMTFHjhxR0ufOnRNrt+vQTuyCdrNwo910FTB60W60G9DumjAM9+/fL40ZFhZm81K3orxFRUVKWhKurq5K2s3Nzfzej7p169p1aCd2QbtZuNFuugoYvWg32g1od00Yhk8++aQ05rvvvqtVQLYePnxYSWdlZalXu6Ojo0+ePGmzvNZLJ3ZBu1m40W66Chi9aDfaDWh3tR+Gx48fr1evXnh4eElJiY529+nTR7m3u3fv3lOnTlXy58+fn5iYKEZeWFi4d+/efv362XVoJ3ZBu1m40e67BLfhAyGBdgOg3RU3DJ9//nlpyaVLl+qUUZ5kEhYW5unpmZSUVFxcrOSXlpampKTExMS4u7t37Nhx48aNanmtx4/o7IJ2s3ADDxAEQLvRbkC7q/cwLCgoWL9+fX5+vnPvXnblRZoB0G4AQLsB7a7Jw3D//v1jxoxp27btnj17KlGa0W4AtBsA0G5Au2vgMCwoKFi2bNn9998vm0wmU1mcG2kGQLsBAO0GFie023Krcnk7JCQkNDRU8iMjI8vo3ABQW7Sb2/CBkEC7AdBuu8NQvbwdFhYWEBDgdwecG1i40W4H4KEzQEig3QBot91hGB4e7u/v72eGyPcHH3wgc6aklZmTNOlKSbNwo92AdgPaDWh3zRmGubm5M2bMiL6Dat5RUVHHjh0jWoCFG+2mq4CQQLsB0O7yHIYlJSWbN29+/PHHQ++AeQMLN9pNVwEhgXYDoN0VOAzVi98BAQGRkZGYN7Bwo9324TZ8ICTQbgC027lhqF78btu2LeYNLNxoNwCg3QBod8UOw9zc3NTUVKf/SyUAoN0AgHYDixPDkGEIgHYDAOs9QEUuTk888cRbtQNPT8+d2sjWtwCg+iNzGtoNgHaj3VAVtRsAoObBVyqhqkBIoN0Av9y5Wfnt2oSnp+fn2sjWtwGqKn/84x9pBIeQ+a1ytJuHzgAhgXYDAMMQWLhrLWg3MHpZ71nvARiGACzcaDcweoH1HoBhCMDCjXbTVUBIsN4DAMMQWLihCmk3358DQoL1HgAYhsDCjXYDAOs96z0AwxAA0G4AYL0HYBgCANoNAKz3AMAwBAC0GwBY7wEYhgBQC7Sb2/CBkGC9BwCGIbBwo90VDg+dAUKC9R4AGIbAwo1201XA6GW9Z70HYBgCsHCj3cDoBdZ7AIYhAAs32k1XASFRa9f73Nzcp556yt/f38XFRX5L+vTp07Q2ANoNLNxQOdrNbfhASNTU9b5bt2516tRZvHhxYWHhX//6V0lLDq0NgHYDCzdUjnYDQE1d793d3UW1r1+/Lmkxb0k3atTI9ozznyiZpaWlM2fODA0N9fDwGDZsWEFBgVpYSZw6dSoyMnLOnDnKy6NHjw4cONDT07NZs2b9+/e/ePGiWn7hwoXh4eFeXl6jR4++ceOGkl9SUjJlyhSTySQnKAVs1sS8PupLNze39u3bb9q0Sf99AdBuAEC7AeBurPeDBg1SrnaLectvSQ8ePNi6mOi1qrbmVj1v3rxevXqdOHEiLy9v6NChEyZMMC9w5MgRMeZFixapO8bFxe3YsUPe68qVK2PGjBkxYoRaPjEx8cc7SGLatGlK/qxZs+Lj47Ozs8+ePZuUlGT9SUArRz4ALFu2TCRe/30B0G4AQLsB4G6s96LL7dq1Uy8SS1pyrIuJsLq4uFjbbUxMjLi1kj537lxISIhaYN++fd7e3uolamvy8/ODgoLU8llZWUr60KFDERERSjoyMvLgwYOak6Cudi9durRHjx767wuAdgMA2g0Ad2O9f+SRRyzu7ZYc62I5OTk+Pj7Wduvm5mZ+p0fdunXVAlK+d+/eFtfOMzMzExISPDw8lPL16tVTyxcVFSlpSbi6uippSaj5BrVbxd3dfdWqVfrvC4B2A0DV0m5uwwdCoqau9wbv7d66dWvXrl2tfTc6OvrkyZM2hXj79u1izFFRUevWrVPzIyIili9ffunSpVu3buXl5Znfk3348GElnZWVpV7tbtmypXNXu+Vc0tLSWrRoof++AGg3sHBD1dJuHjoDhERNXe8feOABcdAlS5aIeaempkq6Z8+eFmXEgzt06GDe6aq2zp8/PzExUYxZNHfv3r39+vWzKCATvdRN/QqjpNPT04uLi48fPz5w4EBz7e7Tp49yb3fv3r2nTp2q5CcnJ8fHx0thR+/tltNZvXp1cHCw/vsCoN3Awg1oNzB6oTzX+4KCgvXr1+fn51vknz592vy53UOHDv3pp58syvj6+k6cOPHmzZvWdltaWpqSkhITE+Pu7t6xY8eNGzdaC/GECRMGDRqkpLds2RIdHd2gQQOTySQ7mmv3woULw8LCPD09Ra/Fj5V8edNJkyYFBQVJ3RYvXmxEuxUaN27cpUuX3bt3678vANoNLNyAdgOjF8pnvd+/f/+LL77Ytm3bPXv2VN3pDA8GtBuAhRvtpquAkKiO631BQcGKFSseeOAB2WQymaqyc6PdgHYDsHCj3f8Lt+EDIVGN1nvl8nZYWFirVq0kPzw8vIo7N9oNaDcACzfaDQDVZr1XL29HRkaGhIT43aFaODcA2g0AaDcAVJv1Xgzb39/fz4yAgIAPPvjgjTfekLTy50XSpEmXJW0XZioAtBsAar525+bmTp482fxSd2BgYKtWrY4dO0brAQAAoN0AUD7arSRKSko2b97cp08fk8kUcAfMGwAAoNpoN7fhAyFRXbRbRb347e/vHx0djXkDMBMC4QrVQLt56AwQEtVOuxWUi98PPfRQ27ZtMW8AZkIgXAHtBkYvVIh2q+Tm5qamplr/l0oAYCYEwhXQbmD0QrlpNwAwEwLhCmg3MHoB7QZgJgQgXNFubsMHQgLtBgBmQiBc0W4AQLvRbgAAALQbANBuAAAAtBsA0G4AAABAuwEA7QYAAKgV2l2TbsMvKioidAgJtBsAmAmBcIWqqN014KEzGRkZCQkJzZs3d3V1JXQICbQbAJgJgXAFtLv8OXDgQLNmzZYsWZKTk3Pr1i1Ch5BAuwGAmRAIV6hR2n3z5s1Zs2ZFREQ0bNiwdevW69atq5SWGjRoUHJyMhHD6EW7AYCZEAhXqJnaPXny5Dp16oh5X7t2TX7fc889u3fvvvst1axZs59//pmIYfSi3QDATAiEK1Rp7Xb6NvygoCDR7vz8fEnLb0k/9thjNs7ECjV/4cKF4eHhXl5eo0ePvnHjhpqv7tu/f3/1ZXFx8fjx48U/fH19JSEvJbOgoEB2HzJkSPPmzQMDA1/6/+3dC1QUdf/Hccu7mSVXuV8kL6h4zfIaGmk9PdWT1rF6zOyv/050qsdLoplyJF1ABSKvhVmIIRoZWqilpf4J/oXwJCqSBiJgD2qplYfKI9n//32cmjPPsjN7ERCW9+vM4czOzszOzu8ynx1mZ6OiLl++bLz+K1euLF68ODAwsGvXrk8//bSsQW871Zc2WMTsnRq/Bb31GO8xG7ehoqIiJCQkLi5OeXj8+PGJEye6uLjIxxLZhu+//954t9TW1i5cuNDf31/28OzZs63uE/Vhx44dBwwY8OGHHxq/LojdQPPCd9RAdSV2NyGS/8xit5+fn8UQqZdNIyIivr1KRhYtWmQ2Q1ZWVmhoqPpQQqHMduqqMWPGREdHK7FbWY86/dVXXzVef2Ji4t13311eXn7hwoXJkyfPmjXLeIMNFrEau83egtWXVuK1drVWl1VmOHbsmCTmNWvWqAuGhYXt3bv3l19++fHHH59//vnp06cb75YlS5aEh4eXlZWdPn06MjLS6j5Rp0gRpKamSog3fl0QuwEAIHY7aMqUKdqLTGS8bdu2dsXuo0ePKuPFxcXdu3fXziA53tfXNzc3V50/ODhYnf/IkSPK/JcvX9auR6aHhIQYr79Xr14SUpXxM2fOBAQEWI2YeosYx+66b8HqSwsJrO3atau7ToNtOHjwoLu7++rVq/VKStkS490i+032nm51NIzd77zzzujRo41fF8RuAACI3Q6SUPXMM894enp27Nhx6NChksO8vLzsit3qbbZlRL33nzJDZGTkc889p51fZrA4f+vWrbXTZWOM1y8zaC+ZuPHGG61GTL1FDC7AsPgWrL60qKys9PDwqLsxBtsg848bN27SpEna9RQUFIwdO1b5j4SQvWS8W7S718bYrerUqdOmTZuMXxfEbgAAiN31oLCwUDKWWfKzGrtLSkqU8aNHj2rPdufm5vr5+SmXrxif7RYyYnG63vp79ux58uRJo11fJ2LqLWLw1iy+BasvLXbu3DlixIi66zTYht27d0ti7tGjh/ZmMvJ+N2zYcP78+d9+++3ChQtWd/ttt93m2Nnun3/+OT093c3Nzfh1QewGAKClx+5ruQx/2rRp3377rcTBUaNGdejQ4fDhw3Zl0/HjxysXGY8bN065VluZHhoampWVZTb/K6+8ol7DPXbs2AULFijT582bZ3G63vqTk5NlfomekhcPHDjw4IMPWo2YeosYvDWLb8HqS0sOHjRokPb7yFaXVWeQcpRwpn6FUcZlAy5dunTixImJEyda3e0mkyk8PFxmPn369MMPP2x77P7ll18yMjLUy/r1XhfEbqB54TtqoLoSu+uf1ZvO1NTUbN26VTlxayYtLS0kJEQC98iRI/WK3CCbrl69OigoyMXFJTIyUrkziTJ9woQJdef/9ddfX3jhBc+rZES9IkJi6LPPPuvu7m42XW/9V65cWbFiRa9evTp16jRkyJDt27dbjZh6ixi8NYtvwepLy1uYM2eOejMWW5bVbsOsWbMeffRRZXzHjh09e/Zs27atv7+/LGh1t8uLzp8/39fX18vLS+KyLbFb0blz5+HDh6v3jtR7XRC7geaFO7KB6krsbtSiKioqioqKCgsLy8/Pr/932MCBjMDn8G6h9RK7AdATgupK7G6MoqqpqUlLS4uIiJCDvb+/fwP9CA6xm9gNYjdAjgGori00diunt7t373777bf7+PgEBAQ03A9PEruJ3SB2A+QYgOragmJ3Xl6eenq7d+/e/fr163ZVg2ZuNGV8M4PYDYCeEFRXYnf9y87ODg4O9vb29vX17QagSaJPBACg2cduUVVV9cILLwQGBkr4Vo7xMt6nT5/S0lJKAgAAAMTu+lRbW5uZmTl69GgfHx/ly5QkbwAAABC7G4p68lvCd+/evUneAAAAIHZfK73L8JWT32PGjOnbty/Ju0XhmxkUAQCaIaiuxO76Z/WmM1VVVSkpKRZ/pRJOifsQUQQAaIaguhK7KSpQJSgCADRDgOpK7AatFxQBQDMEqK7EbooKVAmKAADNEFRXXIfYzWX4oEpQBABohqC6ErsBAAAAELsBAAAAYjcAAAAAYjcAAADQAmI3l+GDKkERAKAZgupK7G5w3HQGVAmKAADNEFRXYjdFBVovRQCAZghQXYndaHi1tbXr1683mWLj45c1wvDkk081zgvJYDKZcnJyKJHGLIJmus9B79TIQ2P2hI05OE0P4MR1j+ra+DWca7vxh0uXLs2eHbVt2+6qqh+db6ioOB8d/WpxcTElwj4HvRMDPQB1j+G61HDuZII/yEe3Tz/90olbSFnZ2aSk1ygR9jnonRjoAah7DNelhhO78YeYGJPTtxCTKZ4SYZ+D3omBHoC6x3BdariF2N2q1X9MPHXqVI8ePUwmE12/c5OqQ/OgRDjogrbAQA9A3WO4PrG7vLw8KCgoOTmZfp8DGwcASoTYDdoCA7GbgaFBYvexY8f8/PzefPNNi/No1c3rV65cGT58uHbK9u3bBwwY0L59++Dg4MWLF9fW1lo8ua6d0soSjkB0LsRu9jnonRjoAah7DM4Tuw8dOuTl5bVx48a6M/z+++/a+GsxdiclJYWHh6tTcnNzw8LC5O/PP/9cWlo6btw49aoVg9htMAV0LsRu9jnonRjoAah7DM0+dh84cMDT09Pd3X3fvn11Z7h8+XKbNm0MYndZWZkse+LECXVKREREQUGBusipU6dCQkKI3XQuHACI3QC9E70udY+hRcduDw+P7OzsnTt3BgYGXrx40WyG8+fPd+nSRS92//777+Hh4StWrNA+5ebm1vqqG2+88YYbbpDpMq4uZfVKEmI3nQuxm30OeqcGGr7++l+kB3oAYjfDdYvde/bsUcanT58+bdo0sxlKSkpuu+02vdi9Zs2aUaNGSfjWPtWhQ4fq6mrLW8DZbjoXDgDEbqBx28IXXxx54ompfn4B7dt36NixY4O2AjmEEUqoewzU8P+zeieTixcvBgUFZWdna2fIyMh4+OGHLcbuyspKT0/P0tJSs6dGjBixdu1aYncz7VzMjhn5+SXBwSFRUQs5AFzf7j46OrZdu/aLFsWzz9GSeyeFtIWgoO4vvjjnm2/OWK2WeXmHvL195s9/de/e/CNHKiorfyB20wM4XPe0iKHU8GuK3WL//v3e3t7nz59XHn711VchISGSvC3G7vHjxyclJdV96tNPP3VxcUlNTT137tx33323c+fOMWPGELubY+yWw5WfX0ATj3otJHaHhvZdtmxlnz792OegdyorO7trV86wYSOnTJlutVqOH3//229vbrRWQOxuCSekGKjh9RO7xYwZMyZNmqSM+/j4LF261OL8MjJs2LArV65YXJXEd4naN910U9euXe+5557PPvuM2N3sOpd9+wq8vX3i45Otfu6v2ytVVFwYPPgOi0+ZTbFxqb178318/BYu/PdPiO3fX/iXvzx4661db765y733/rWo6ITTx+5duz4fMuROJXx//HGuLSdgjM/NrF+fIQm+Xbv2/v6BL730Snn5uRa4z+EE/4tzc/NQH8bFvRYQENSmTVv5Gx//utqruLq6RUb+QyqzVPiePXuvWrVeuxKLS9l7dlMaUdeuLq6u7suXr5LZli5dIS8qU+bMWaDOo9eIZP4VK9b17t2nQ4cO0h4TE9dot2Hw4KHaFxo4cIi6GQYrNN5vBs1f0bFjR3mh99/fZe+uaLGxW68sMjK2jxhxV+fOnV1cXCMi7v3ssy+N57fxaOtY6dv1lDrx+PHTffqESZVWpyckrA4LG2j2jyaDamzjEcexumrvsc9qezer/PUfu8GBzWKl/+STPA+PbsnJb9adobLyB20ltthuo6Njhw0baW9r11sqK+sTd3fPlSvfUh5Kw968+SNp80ePVk2d+szjj09x+tj99NPPKm8/JmbptGmRBkcCW6Z88MHHsg/lr/SnOTlfjR49Vr2IqEXtczhT7E5JedfLy3vz5g9LSr6VvzKunOE+cqRCljJ7atOmbcZL2XWaU9JG//6D5GPqoUPlEyY8JvNPnPiYjEvG6tdvwJo17xg3IplfPhK8996Or7/+15Yt2T4+vu+++4H6VLduXtIbKw9lRB6q22OwQoO3YEvzP3asOilprbe3j727osXGbr2yCA+PSE/PkolSD5csSQgODrGrRzV7Xe24A6XvWOy++tWIYmkaShLdtm2PJOCCgmN1Z9arxrZUOYfrql3HPoP2brXyE7vRgJ3LRx/tlYOZq6ubNJ66M5SXf9+mTRuDdvv55wdl2dzcIrtau95Sb721STYmI2O7xa0tKTklLce5Y7fs8B49ep048Z2SIaQ7kCnX0vWMHBmenb1Pm10CA4Nb4D5H840+0hw+/jh3+PDRkyf/lzJl8OA71q1L1x5flX8QSQiQpcyeuuOO4cZL2ZU1Bw4cIh9TlfGTJ8/L/BUVF5SHW7d+bHa6um4jkvm1WV+25847R6hPzZgx96mn/lt5OGXK9Jkz51ncHrMVGrwFq81fSR6JiWs8PLoRu+ueDb3hhhtcXFyl0GNjk6S4bewhS0vPJCe/YTHMGfSoZWVnLR5tHSt9h2O3DJK55SOfJGDJ3Dt27Lc4s141tqXKOVxX7Tr2GbR3q5Wf2I0G7FxcXd1TU7ds2JDp6+svHwrNZjh8+GTnzjfrtdvKyh+GDRsZE7PU7CmD/wcZLBUfnyyvFRraVwmd6k0J7rvvAcnoynpat27t3LFbuobnn5+tPnzooUckFl9L1yPHjLq3+GyB+xzNN/q0bdsuICDouedmHj9+WnnqlltulQ+l6pwyLlOUT60yv9lTt97a1Xgpu7Jmly63aPtJ7fySh9TX0mtEMl5cXGlx8+QpiRryUN6mDDIiDzXnIHVXaPAWjJu/Sl4rPT2L2G3xvUsy++ijvfKpb+rUZ2zpIZWJkrnVwGpjj1pYeExbIbXbYFD6Dlx9oS33iIh7c3OL6ha3fMyQCrN2bare/tGrxsZVzuG66sCxz6C9W638TTR2V1VVvfXW+ri4pbGxS+Xvxo3vnj17lqNIs+tc1P/APv74lMcee9Jshr1784OCuuvFbpMpcejQYcq9Amz/kK23lHy0/fzzg/fcc19k5D/UZSWgy+H2wIGvy8vPlZaecY6rDA1KRN6+WUc5fvz919L1tG/fQXpzvdJvOfsczTr6WD2gqkd9icW2x271KeM2pU0tN9/cxSB2y7PGjcg4dstfiUHLl69atmyltErt+g1WaPAWjJu/MnL0aNXMmfPUfobYbfG9y563WrjqILv0xRfnPPTQI3b1qFlZn4SG9rW4DQ6Uvi1PKUWvnAM2m3/WrJfbtGmj/bqCjbHblirncF29xtht1tYMKn+Ti90SrxctWrxq1bqDB0s1/xE4mpi4csmS2JqaGo4lzbFzkWOJn19AauoW7QyrVq2/996/Wmy3X3xR7ObmkZPzlV2t3WCpgwfLZET+enp2e++9Hcr0Tp06qT94kZm507ljt7x3s4O6ciBXvkDjWNcjXWpsbJJe6becfQ5nit2DB9+h/hdI+R+3+u9jx56yPWv27z9IvcikouKC2UUmAwYMNm5Edf87r14Do8wjPfDAgUNkPamp72m3x2CFBm/BuPlrO38JPcRu49jt7u5pew8peU5ms6tHffnlmL///WmL2+BA6dv4lBS9sp3aiRs2ZPr4+O3alSPHhbS09225yEStxjZWOYfrql0Xmei1d6uVv2nF7oKCggULFpWVndW76igq6mX19t5oXp2LBC9pZocPn/zzlho5gYHB2lsBaNvtXXfdHR0da29rt2Uppc1LtyXjffqEyfzHj5/esWN/SEhP547d8k4nTJhkNvFvf3tUuaujY11PRsZ2+YiflLT20KFyideyb4cPH9UC9zmcKXanpLzr4+O7ZUu2+o0uNQS88cYGvacMlrI9a0pTkkysfKVy4sR/f6XykUcel3GZ0q/fgNdfT1Fm02tEMuLr66/9Lpoaa5R5JMRLS5TpSppXFzRYocFbsKX5y1F79uz5vXv3IXbrXWQi+3zkyHD1IhO9shg//v6dO//nm2/OfPHFkccee1Ld1bb0qIWFx6Tc5ZObxW1woPRteUop+kGDbtdOzM0tcnV1z8rarXyl0sOjW17eobqr0qvGNh5xHKur9n6lUq+9W638TSh2V1dXR0cvNm6K5eXnJHlzzruZHtimTYt84IEJyni3bl7y+Vuv3Q4ePFQ9zWN7a7dxKengJG4q0b9v3/5t27aTNhMTs9S5Y3doaN+6X23ctGmbcgNvx7oe5dOU9F+dOnW65ZZbR40as3nzhy1wn8OZYrdy7enVW4O1Mbs1mHLLsx49erVr177uUwZL2Zg1Kyt/mDFjrjQlV1e3xMQ1Mv/y5atkXKbMnDlPcxtQy41Ie+c1P78AWdb4pdWJBis0voeaQfNXdO7cWWbYvft/id0Wryy66aabJOnOmvWyerZRrywk1fXvP6h9+w5y6Hz00Sf++c/jxvNb/YEeW0rfsdj9Z9HfLFVi374C7Q0EpXJqT4299tobcgBSv1ZhtRrbUuUcqKuOHfv02rvVyt+EYve8efPVOykaDPIBYsmSWI4oTb9z4YcbKBF+Lge0hUb7uZzG+R2WxnkVfhy+oYusyf5qTz1uWFP+ZaLrH7uLiorS0jJt3NzExJV8w5LOhQhI7AaI3cRu6h6xm9htt4SEJL1LuusO+flHN258l4MKnQsRkNgNELud71fHid0tdnCmatykY7e9dTQubikHFToXDgDEboDoQ69L3WMgdjdsHY2NJXbTuXAAIHYDRB96XeoeA7Gbs90c2DgAUCLEbtAWGIjdDAxNLXbHxS2z5TYmf/7wR+m6dW9xUKFz4QBA7AaIPvS61D0GYrd9cnPzMjN32Li5K1emVFVVcVBpCmJiTDQPSoSDLmgLDPQA1D2GZhO7xdy5823Z1rKys4sWvcoRpYlYvHhJ3V+Zcqbh+PHqBQsWUiLsc9A7MdADUPcYrksNb5DYXVJSsmxZstXNXbBgETftbjp++umnl16a++WXR5yybZw+ffGNN9YVFhZSIuxz0Dsx0ANQ9xiuSw1v1UA19ZNPdhsk7/Lyc9HRiwsKCjicNLX+xWQyxcbGLVu23MmGhISE0tJSSoR9DnonBnoA6h7D9arhrRquppaUlMydOz8zM1v7DcuysrNpaZkyvbq6mgMJAAAAWohWDf0Cubm5cXHLTKb4yZOnyN+EhKSDB4vY7wAAACB2N4iEhAR2NwAAAIjdxG4AAACA2A0AAAAQu4ndAAAAALEbAAAAIHYDAAAAxG5iNwAAAHDdYveWLVsSbDBhwgRbZpO1USoAAAAgdjuIs90AAAAgdhO7AQAAAGI3AAAAQOwmdgMAAADEbgAAAIDYDQAAABC7id0AAAAAsRsAAAAgdhO7AQAAQOwmdgMAAADEbgAAAIDYTewGAAAAiN0AAAAAsRsAAAAgdhO7AQAAAGI3AAAAQOwmdgMAAIDYTewGAAAAnCB219TUTJ06tba2lj0OAAAAYneDkLQdExOTl5fHCW8AAAAQuxtKfHx8aWmpjOTn56ekpLDTAQAAQOyuZ2+//bakbfVh9lXsdwAAABC7682uXbu2bdtmNjElJaWwsJBdDwAAAGJ3PZBsrXdJSXx8fHl5OXsfAAAAxO5rUlVVZTKZ9J6tra2dP3/+Tz/9RAEAAACA2O0gydOSqo1vF1hTUxMVFcUtBQEAAEDsdoQkacnTkqqtzlldXR0TE0MZAAAAgNhtN0nSkqdtnLm4uHjlypUUAwAAAIjddli7dm1RUZFdi+zZs2fr1q2UBAAAAIjdNpH0LBnagQXT09NzcnIoDAAAABC7rcjLy0tLS3N48YSEBOWXLAEAAABit2WSmCU3X+NKFi5cePbsWYoEAAAAxG4LJCvHxMRc+60Aa2pqJHnbcgsUAAAAoMXF7pSUlPrKypLg09PTKRUAAAAQuwEAAAAQuwEAAABiNwAAAEDsBgAAAEDsBgAAAJqb/wfn2Y58tBiWYgAAAABJRU5ErkJggg==;" vertex="1" parent="1">
          <mxGeometry x="40" y="40" width="700" height="395.09" as="geometry" />
        </mxCell>
      </root>
    </mxGraphModel>
  </diagram>
  <diagram id="tK3KhCL10qpFUtspO-DL" name="Страница — 2">
    <mxGraphModel dx="880" dy="434" grid="1" gridSize="10" guides="1" tooltips="1" connect="1" arrows="1" fold="1" page="1" pageScale="1" pageWidth="827" pageHeight="1169" math="0" shadow="0">
      <root>
        <mxCell id="0" />
        <mxCell id="1" parent="0" />
      </root>
    </mxGraphModel>
  </diagram>
</mxfile>
